<svg width="35" height="38" viewBox="0 0 35 38" fill="none" xmlns="http://www.w3.org/2000/svg">
<path d="M18.5625 8.71875H16.2812V0.71875H18.5625V8.71875ZM4.84375 6.4375H2.5625V4.15625H4.84375V6.4375ZM32.2812 6.4375H29.9844V4.15625H32.2812V6.4375ZM7.125 8.71875H4.84375V6.4375H7.125V8.71875ZM29.9844 8.71875H27.7031V6.4375H29.9844V8.71875ZM9.42188 11H7.125V8.71875H9.42188V11ZM27.7031 11H25.4219V8.71875H27.7031V11ZM20.8438 27H13.9844V24.7188H11.7031V22.4375H9.42188V15.5781H11.7031V13.2969H13.9844V11H20.8438V13.2969H23.125V15.5781H25.4219V22.4375H23.125V24.7188H20.8438V27ZM7.125 20.1562H0.28125V17.8594H7.125V20.1562ZM34.5625 20.1562H27.7031V17.8594H34.5625V20.1562ZM9.42188 29.2969H7.125V27H9.42188V29.2969ZM27.7031 29.2969H25.4219V27H27.7031V29.2969ZM7.125 31.5781H4.84375V29.2969H7.125V31.5781ZM18.5625 37.2812H16.2812V29.2969H18.5625V37.2812ZM29.9844 31.5781H27.7031V29.2969H29.9844V31.5781ZM4.84375 33.8594H2.5625V31.5781H4.84375V33.8594ZM32.2812 33.8594H29.9844V31.5781H32.2812V33.8594Z" fill="#000AFF"/>
</svg>
